<svg id="图层_1" data-name="图层 1" xmlns="http://www.w3.org/2000/svg" viewBox="0 0 240.45 85.04"><defs><style>.cls-1{fill:#f6ab00;}.cls-2,.cls-3{fill:#004098;}.cls-2{fill-rule:evenodd;}</style></defs><title>dovepay</title><path class="cls-1" d="M118.54,112.34h5.9c.71-2.17-.49-3.2-2.23-3.21a5.78,5.78,0,0,0-5.52,4.13c-1.56,5.77,5.18,6.13,10.62,3.66.16-.08.15,0,.09.12l-2.6,3.74a.73.73,0,0,1-.35.26,16.49,16.49,0,0,1-8,.9c-5-.75-6.29-4.91-5.37-8.39,1.35-5,6.22-8,11.52-8,7,0,8.43,5.36,6.09,9.95h-10.9a6.49,6.49,0,0,1,.71-3.16m-39.67,9.75c4.73-.1,10.15-2.55,11.61-7.84,1.65-6-2.13-8.65-7.18-8.7s-10.28,2.71-11.84,8.7C70.09,119.54,74.19,122,78.87,122.09Zm3.43-12.81c2.66.13,3.25,2.26,2.45,4.93a5.1,5.1,0,0,1-4.85,4c-2.57-.1-3.22-1.76-2.69-4C77.84,111.54,79.58,109.41,82.3,109.29Zm-9.48-9.2-4.9,18.3,1,3.71H59.29c-13.59,0-11.66-17,5.14-16.53l-1,3.53c-8.89.47-10.12,8.79-3,8.82h2.45l4.78-17.83Zm22.35,22-2.75-16.34a.17.17,0,0,1,.19-.2h5.3a.67.67,0,0,1,.76.68L100,115.5l6.86-9.53a.82.82,0,0,1,.75-.42h5.59c.15,0,.17.1.07.24L101,122.09Z" transform="translate(-42.52 -42.52)"/><polygon class="cls-2" points="19.64 36.46 29.56 36.46 25.37 52.08 15.45 52.08 19.64 36.46"/><polygon class="cls-2" points="21.12 30.93 75.26 30.93 74.42 34.07 20.28 34.07 21.12 30.93"/><path class="cls-2" d="M85.44,87.1l1.27-4.75c19.33-6.08,29.73-3.91,27,6.34l-1.58,5.91h-9l1.51-5.65c1.21-4.52-6.28-6.87-19.21-1.84" transform="translate(-42.52 -42.52)"/><path class="cls-2" d="M85.22,79H75.3L71.12,94.59h29.42l.84-3.13H81.88L85.22,79" transform="translate(-42.52 -42.52)"/><path class="cls-2" d="M103.27,67.92,105.4,60H95.48l-2.13,7.94H88.18L90.31,60H80.39l-3,11.08h41l3.13-11.67c.89-3.34.72-7.13-5.29-7.13H69.32l-5,18.8H74.2l3.74-14H110c1.62,0,1.93,1,1.55,2.45l-2.24,8.37Z" transform="translate(-42.52 -42.52)"/><path class="cls-2" d="M126.63,44.32h-2.22L122.06,46H105l4.47-3.43h-7L92.84,46H79.12a13.65,13.65,0,0,0-8,2.13c-1.8,1.13-.41,1.77,1,1.77h50.31Z" transform="translate(-42.52 -42.52)"/><polygon class="cls-2" points="14.34 2.29 26.73 2.29 17.9 13.52 23.72 13.52 15.45 24.74 18.37 24.74 11.05 52.08 0.3 52.08 6.51 28.9 0 28.9 9.35 16.21 3.4 16.21 14.34 2.29"/><path class="cls-2" d="M188.15,44.92h12.77l-2.35,8.78h6.2l-1,3.56h-6.2l-7.54,28.15c-1.66,6.19-4,9.18-10.73,9.18H164.44l.35-5.27h6.62c3.29,0,5.39-2.06,6.31-5.5l7.12-26.56H151.22l1-3.56h33.62Zm-20.43,16.2h-13.9l-2.45,25.31h13.89ZM143.1,44.92h14.27L142,63.55h4.61l-8.32,31H125.48l6.8-25.39H123Z" transform="translate(-42.52 -42.52)"/><path class="cls-2" d="M249.55,65.66,251.34,59h-10l-1.79,6.67ZM246.77,76l1.91-7.13h-10L236.78,76Zm12.1-7.13L257,76h10l1.91-7.13ZM261.52,59l-1.79,6.67h10L271,61.15c.43-1.62-.05-2.16-1.21-2.16ZM260.4,84.75h2.34a2.32,2.32,0,0,0,2.42-1.83l1-3.67h-10L253.76,88H243.57l2.34-8.73h-10L233.58,88H221.9l8.63-32.2h13.35l-3.62-4.17H253.4l3.28,3.78,11.26-5c.78-.35.6-.94,0-.94H232.13L233,46h45.2c5.39,0,3.87,5.23,0,7l-6.16,2.76h7.19c2.9,0,4.48,1.33,3.3,5.73l-5.52,20.6c-.94,3.49-4.22,5.87-8.51,5.87h-9Zm-52.19-31h17.67L215.81,91.27h60.72l-.89,3.32H202.92l10-37.33h-5.67Zm16.85-8.9H212.66l1.5,6.91h12.39Z" transform="translate(-42.52 -42.52)"/><path class="cls-3" d="M157.57,106.87c3.42-1.57,17.22-3.08,15.41,3.7l-3,11.35a.25.25,0,0,1-.26.22h-4.95c-1.67,0-5.07.22-7.28-.52-3.41-1.13-3.68-4.2-2.45-6.5,1.92-3.42,6.15-4.13,10.94-3.81l-.85,2.75c-1.55,0-4.71.2-5.15,2.39-.29,1.47,1,2.32,2.42,2.31,1.11,0,2.22,0,3.08-.05l2.05-7.67c.73-2.74-5.85-2.73-11-.52Zm-27.39,20.69,4.9-18.3-1-3.71h9.66c13.59,0,11.66,17-5.14,16.53l1-3.53c8.89-.47,10.12-8.79,3-8.82h-2.45l-4.78,17.83ZM266,111.68l-2.81,10.5h-5.49l2.61-9.75c1-3.6-2-3.57-4.73-1.37l-3,11.12h-5.26l2.58-9.62c1-3.6-1.46-3.4-4.44-1.51l-3,11.12h-5.44L241.39,106h4.95c.36,0,.44.2.37.47l-.35,1.31c2.79-2.09,8.08-3.89,9.3.57C260.5,103.69,267.89,104.7,266,111.68Zm-65,6.75c-1.41-3.34.25-7.72,2.91-10.11,3.6-3.23,9.33-3.57,13.46-1.75.15.07.2.15.16.3l-1.16,4c0,.09-.07.08-.12,0-.67-1.18-3.39-1.75-5-1.57a5.75,5.75,0,0,0-5.34,5.75c-.17,4.78,6.48,3.33,9.1,1.47.05,0,.07,0,.06,0l-1.22,4.26a.34.34,0,0,1-.17.22C209.5,122.72,203,123.21,201,118.42Zm-5.8,3.76h-4.83l1.16-5h4.83Zm29.79-.09c4.73-.1,10.15-2.55,11.61-7.84,1.65-6-2.13-8.65-7.18-8.7s-10.28,2.71-11.84,8.7C216.19,119.54,220.29,122,225,122.09Zm3.43-12.81c2.66.13,3.25,2.26,2.45,4.93a5.11,5.11,0,0,1-4.85,4c-2.57-.1-3.22-1.76-2.69-4C223.95,111.54,225.68,109.41,228.41,109.29ZM177,121.59,174.58,106a.26.26,0,0,1,.28-.36h4.07c.72,0,1,.22,1.06.85l1.44,8.71,6.06-8.76a1.74,1.74,0,0,1,1.71-.88h4.67c.19,0,.24.13.11.3l-15.11,21.72h-6Z" transform="translate(-42.52 -42.52)"/></svg>